<svg xmlns="http://www.w3.org/2000/svg" width="31.203" height="31.202" viewBox="0 0 31.203 31.202"><path d="M-18970.4,2684.7a15.009,15.009,0,0,1-5.875-1.187,15.075,15.075,0,0,1-4.8-3.236,15.051,15.051,0,0,1-3.236-4.8,15.007,15.007,0,0,1-1.187-5.878,15.009,15.009,0,0,1,1.188-5.878,15.089,15.089,0,0,1,3.236-4.8,15.054,15.054,0,0,1,4.8-3.236,15,15,0,0,1,5.875-1.187,15.036,15.036,0,0,1,5.883,1.187,15.081,15.081,0,0,1,4.8,3.236,15.113,15.113,0,0,1,3.236,4.8,15,15,0,0,1,1.184,5.878,15,15,0,0,1-1.184,5.878,15.121,15.121,0,0,1-3.236,4.8,15.1,15.1,0,0,1-4.8,3.236A15.04,15.04,0,0,1-18970.4,2684.7Zm-7.119-16.287a1.076,1.076,0,0,0-1.072,1.076,1.076,1.076,0,0,0,1.072,1.075h5.936v5.932a1.075,1.075,0,0,0,1.074,1.074,1.045,1.045,0,0,0,.758-.314,1.056,1.056,0,0,0,.318-.76v-5.932h5.932a1.043,1.043,0,0,0,.758-.316,1.051,1.051,0,0,0,.316-.759,1.075,1.075,0,0,0-1.074-1.076h-5.932v-5.932a1.077,1.077,0,0,0-1.076-1.074,1.075,1.075,0,0,0-1.074,1.074v5.932Z" transform="translate(18986.004 -2653.999)" fill="#7fbcbe" stroke="#7fbcbe" stroke-width="1"/></svg>