<svg xmlns="http://www.w3.org/2000/svg" width="22.505" height="29.147" viewBox="0 0 22.505 29.147"><g transform="translate(4.249)"><path d="M207.251,319.375a.631.631,0,0,0-.63.63v7.68a.63.63,0,0,0,1.259,0V320A.631.631,0,0,0,207.251,319.375Zm0,0" transform="translate(-200.251 -303.291)" fill="#f16162"/><path d="M287.251,319.375a.631.631,0,0,0-.63.63v7.68a.63.63,0,0,0,1.259,0V320A.631.631,0,0,0,287.251,319.375Zm0,0" transform="translate(-276.222 -303.291)" fill="#f16162"/><path d="M127.251,319.375a.631.631,0,0,0-.63.63v7.68a.63.63,0,0,0,1.259,0V320A.631.631,0,0,0,127.251,319.375Zm0,0" transform="translate(-124.28 -303.291)" fill="#f16162"/><path d="M15.41,3.223h-3.6V1.391A1.392,1.392,0,0,0,10.418,0H3.582A1.392,1.392,0,0,0,2.19,1.391V3.229h-3.6A2.839,2.839,0,0,0-4.209,5.6,2.839,2.839,0,0,0-2.342,8.75a.531.531,0,0,0-.019.138V26A3.149,3.149,0,0,0,.787,29.147H13.22A3.149,3.149,0,0,0,16.367,26V8.889a.478.478,0,0,0-.019-.138,2.843,2.843,0,0,0-.938-5.527ZM3.456,1.391a.133.133,0,0,1,.132-.132h6.837a.133.133,0,0,1,.132.132V3.229h-7.1Zm9.757,26.5H.787A1.894,1.894,0,0,1-1.1,26V8.908h16.21V26a1.9,1.9,0,0,1-1.895,1.889Zm2.2-20.239H-1.41a1.58,1.58,0,0,1-1.58-1.58,1.58,1.58,0,0,1,1.58-1.58H15.41a1.58,1.58,0,1,1,0,3.16Zm0,0" fill="#f16162"/></g></svg>